<?xml version="1.0" encoding="utf-8"?>
<!-- Uploaded to: SVG Repo, www.svgrepo.com, Generator: SVG Repo Mixer Tools -->
<svg width="800px" height="800px" viewBox="0 0 24 24" fill="none" xmlns="http://www.w3.org/2000/svg">
<g id="style=stroke">
<g id="check-circle">
<path id="vector (Stroke)" fill-rule="evenodd" clip-rule="evenodd" d="M12 2.75C6.89137 2.75 2.75 6.89137 2.75 12C2.75 17.1086 6.89137 21.25 12 21.25C17.1086 21.25 21.25 17.1086 21.25 12C21.25 6.89137 17.1086 2.75 12 2.75ZM1.25 12C1.25 6.06294 6.06294 1.25 12 1.25C17.9371 1.25 22.75 6.06294 22.75 12C22.75 17.9371 17.9371 22.75 12 22.75C6.06294 22.75 1.25 17.9371 1.25 12Z" fill="#000000"/>
<path id="vector (Stroke)_2" fill-rule="evenodd" clip-rule="evenodd" d="M16.5303 8.96967C16.8232 9.26256 16.8232 9.73744 16.5303 10.0303L11.9041 14.6566C11.2207 15.34 10.1126 15.34 9.42923 14.6566L7.46967 12.697C7.17678 12.4041 7.17678 11.9292 7.46967 11.6363C7.76256 11.3434 8.23744 11.3434 8.53033 11.6363L10.4899 13.5959C10.5875 13.6935 10.7458 13.6935 10.8434 13.5959L15.4697 8.96967C15.7626 8.67678 16.2374 8.67678 16.5303 8.96967Z" fill="#000000"/>
</g>
</g>
</svg>