<?xml version="1.0" encoding="utf-8"?>
<!-- Uploaded to: SVG Repo, www.svgrepo.com, Generator: SVG Repo Mixer Tools -->
<svg width="800px" height="800px" viewBox="0 0 24 24" fill="none" xmlns="http://www.w3.org/2000/svg">
<g id="style=stroke">
<g id="clock">
<path id="vector (Stroke)" fill-rule="evenodd" clip-rule="evenodd" d="M12 4.75C7.44621 4.75 3.75 8.44621 3.75 13C3.75 17.5538 7.44621 21.25 12 21.25C16.5538 21.25 20.25 17.5538 20.25 13C20.25 8.44621 16.5538 4.75 12 4.75ZM2.25 13C2.25 7.61779 6.61779 3.25 12 3.25C17.3822 3.25 21.75 7.61779 21.75 13C21.75 18.3822 17.3822 22.75 12 22.75C6.61779 22.75 2.25 18.3822 2.25 13Z" fill="#000000"/>
<path id="vector (Stroke)_2" fill-rule="evenodd" clip-rule="evenodd" d="M11.667 8.20898C12.0812 8.20898 12.417 8.54477 12.417 8.95898V12.649C12.417 12.771 12.4646 12.9586 12.5772 13.1561C12.6899 13.3536 12.827 13.4899 12.9313 13.5518L12.9333 13.5529L15.7233 15.2179C16.079 15.4302 16.1953 15.8906 15.983 16.2463C15.7708 16.602 15.3103 16.7183 14.9546 16.506L12.1666 14.8422C12.1663 14.842 12.1659 14.8418 12.1656 14.8416C11.7844 14.6154 11.4809 14.2615 11.2742 13.8991C11.0674 13.5364 10.917 13.0939 10.917 12.649V8.95898C10.917 8.54477 11.2528 8.20898 11.667 8.20898Z" fill="#000000"/>
<path id="line (Stroke)" fill-rule="evenodd" clip-rule="evenodd" d="M17.4379 1.50345C17.7121 1.19304 18.1861 1.16374 18.4965 1.438L22.2434 4.74864C22.5539 5.0229 22.5832 5.49687 22.3089 5.80728C22.0346 6.11769 21.5607 6.14699 21.2503 5.87273L17.5033 2.56209C17.1929 2.28783 17.1636 1.81386 17.4379 1.50345Z" fill="#000000"/>
<path id="line (Stroke)_2" fill-rule="evenodd" clip-rule="evenodd" d="M6.56203 1.50345C6.28776 1.19304 5.81379 1.16374 5.50339 1.438L1.75643 4.74864C1.44602 5.0229 1.41672 5.49687 1.69098 5.80728C1.96524 6.11769 2.43921 6.14699 2.74962 5.87273L6.49658 2.56209C6.80699 2.28783 6.83629 1.81386 6.56203 1.50345Z" fill="#000000"/>
</g>
</g>
</svg>