<?xml version='1.0' encoding='utf-8'?>
<!DOCTYPE svg PUBLIC '-//W3C//DTD SVG 1.1//EN' 'http://www.w3.org/Graphics/SVG/1.1/DTD/svg11.dtd'>
<!-- Uploaded to: SVG Repo, www.svgrepo.com, Generator: SVG Repo Mixer Tools -->
<svg fill="#000000" height="800px" width="800px" version="1.1" xmlns="http://www.w3.org/2000/svg" viewBox="0 0 512 512" xmlns:xlink="http://www.w3.org/1999/xlink" enable-background="new 0 0 512 512">
  <g>
    <g>
      <path d="M480.6,364.5c-11.3,0-20.4,9.1-20.4,20.4v75.2H51.8V385c0-11.3-9.1-20.4-20.4-20.4c-11.3,0-20.4,9.1-20.4,20.4v95.6    c0,11.3,9.1,20.4,20.4,20.4h449.2c11.3,0,20.4-9.1,20.4-20.4V385C501,373.7,491.9,364.5,480.6,364.5L480.6,364.5z"/>
      <path d="m197.2,235v-183h109.7v182.2h67.6l-118.9,118.9-118.1-118.1h59.7zm46.4,164.1c6.7,6.7 17.4,6.7 24.1,0l176.8-176.8c10.7-10.7 3.1-29.1-12.1-29.1h-84.4v-165.2c0-9.4-7.6-17-17-17h-157.8c-9.4,0-17,7.6-17,17v166h-76.6c-15.2,0-22.8,18.4-12.1,29.1l176.1,176z"/>
    </g>
  </g>
</svg>