<svg id="Layer_1" data-name="Layer 1" xmlns="http://www.w3.org/2000/svg" xmlns:xlink="http://www.w3.org/1999/xlink" viewBox="0 0 1500 1000"><defs><style>.cls-1{fill:none;}.cls-2{clip-path:url(#clip-path);}.cls-3{fill:#dc1f26;}.cls-4{fill:#009b3a;}.cls-5{fill:#fedf00;}.cls-6{fill:#002776;}.cls-7{clip-path:url(#clip-path-2);}.cls-8{fill:#fff;}</style><clipPath id="clip-path"><rect class="cls-1" width="1500" height="1000"/></clipPath><clipPath id="clip-path-2"><ellipse class="cls-1" cx="750" cy="500" rx="204.94" ry="205.35"/></clipPath></defs><title>Flag-of-Brazil</title><g class="cls-2"><rect class="cls-3" x="-78.43" y="-100" width="1656.86" height="1200"/><rect class="cls-4" y="-0.5" width="1500" height="1001"/><path id="_47" data-name=" 47" class="cls-5" d="M264,500,750,811l486-311L750,189Z"/><ellipse id="_46" data-name=" 46" class="cls-6" cx="750" cy="500" rx="204.94" ry="205.35"/><g id="_45" data-name=" 45"><g class="cls-7"><path class="cls-8" d="M135.18,910.7C135.18,635.27,358,412,632.89,412S1130.6,635.27,1130.6,910.7h-29.28c0-259.23-209.72-469.37-468.43-469.37S164.46,651.5,164.46,910.7Z"/></g></g><path id="_44" data-name=" 44" class="cls-4" d="M640.63,436.42l17.56.62.12-3.63-14.21-.5.18-5,11.14.39.12-3.35-11.15-.45.14-3.91,13.38.47.09-3.56-16.72-.58Z"/><path id="_43" data-name=" 43" class="cls-4" d="M665.39,437.5l3.34.29,1.16-13.36,2.73,13.7,3,.27,5.06-13-1.17,13.36,3.33.29,1.7-19.48-4.86-.43-5,13L672,418.42l-4.86-.43Z"/><path id="_42" data-name=" 42" class="cls-4" d="M705.83,442.05l14.43,2.45.57-3.3-11.13-1.92.75-4.4,9.07,1.56.57-3.31L711,431.6l.52-3,10.78,1.86.57-3.3-14.08-2.43Z"/><polygon id="_41" data-name=" 41" class="cls-4" points="826.79 467.36 833.57 470.32 832.46 472.88 825.68 469.93 826.79 467.36"/><polygon id="_40" data-name=" 40" class="cls-4" points="831.01 469.2 833.57 470.32 829.68 479.28 827.12 478.17 831.01 469.2"/><path id="_39" data-name=" 39" class="cls-4" d="M886.79,503.16c-1,1.65,0,3.49,2.37,5s4,1.45,4.63.39c2.14-3.36-10.21-8.25-6.4-14.11,3.28-5,8.89-1.11,11,.24s5.51,4.84,2.87,8.87l-3.59-2.29c1.12-1.77-.11-3.46-2-4.66s-3.3-1.7-4.39,0c-1.82,2.73,10.28,7.89,6.57,13.72-2.74,4.3-7.49,2.42-10.67.39-2.7-1.72-6.74-5.79-4.11-9.91Z"/><path id="_38" data-name=" 38" class="cls-4" d="M858.32,493.59l15.29,8.67,1.78-3.16-12.38-7,2.48-4.38,9.7,5.51,1.65-2.92-9.71-5.5,1.93-3.41L880.7,488l1.79-3.17-14.56-8.25Z"/><path id="_37" data-name=" 37" class="cls-4" d="M907.73,517c-1.13,1.59-.16,3.48,2.1,5.1s3.88,1.66,4.61.63c2.3-3.24-9.76-8.78-5.66-14.42,3.54-4.85,8.94-.65,11,.81s5.26,5.13,2.41,9l-3.47-2.47c1.22-1.71.07-3.47-1.74-4.77s-3.21-1.86-4.39-.21c-2,2.63,9.85,8.41,5.85,14-3,4.15-7.61,2-10.67-.16-2.61-1.87-6.44-6.14-3.59-10.12Z"/><path id="_36" data-name=" 36" class="cls-4" d="M582.74,429.2c-.66-5.36-5.09-9.23-9.91-8.64s-8.18,5.42-7.53,10.78,5.09,9.23,9.91,8.63S583.39,434.56,582.74,429.2ZM574,424.32c6.63,0,6.63,11.92,0,11.92S567.39,424.32,574,424.32Z"/><path id="_35" data-name=" 35" class="cls-4" d="M942.36,536.41c2.48-4.79,1-10.49-3.31-12.73s-9.81-.16-12.29,4.64-1,10.49,3.31,12.73S939.88,541.21,942.36,536.41Zm-4.44-9c5.47,3.76-1.25,13.59-6.72,9.84s1.24-13.55,6.72-9.75Z"/><path id="_34" data-name=" 34" class="cls-4" d="M631.76,420.59c-2.16-3.47-6.49-3.63-6.49-3.63l-9.76.15.34,19.56s7.74,0,9.8-.2A9,9,0,0,0,631.7,433a9.46,9.46,0,0,0,1.55-6.05A10.25,10.25,0,0,0,631.76,420.59Zm-8,12.36h-4.38s-.17-9.88-.21-12.29c4-.05,4.17-.05,5.74-.05,2.89.05,4.11,2.21,4.72,3.61a28,28,0,0,1,.28,3.54,5.77,5.77,0,0,1-1.83,3.8,6.4,6.4,0,0,1-4.29,1.39Z"/><path id="_33" data-name=" 33" class="cls-4" d="M605.1,429.06a8.5,8.5,0,0,0,2.56-4.2,6.14,6.14,0,0,0-5.2-6.95l-.47-.05c-2,.08-12,.78-12,.78l1.08,19.53,3.62-.25-.51-7.25,6.28-.44,1.51-.11s1.94,3.19,2.13,5.16c.07.71.11,1.43.11,2.14h3.52a15.07,15.07,0,0,0-.91-5.56A11.05,11.05,0,0,0,605.1,429.06Zm-2.2-3c-.76.64-2.89.67-2.89.67l-6,.4s-.24-3.41-.35-5c.92,0,5.71-.4,5.8-.4a19.6,19.6,0,0,0,2.06-.13,2.78,2.78,0,0,1,1.57.72,2,2,0,0,1,.79,1.68,2.78,2.78,0,0,1-1,2Z"/><path id="_32" data-name=" 32" class="cls-4" d="M811.25,458.8c.73-5.35-2.56-10.22-7.37-10.89s-9.29,3.14-10,8.48,2.56,10.23,7.36,10.9S810.51,464.15,811.25,458.8Zm-7.18-6.95c6.41,1.7,3.36,13.22-3.05,11.52s-3.36-13.23,3.05-11.52Z"/><path id="_31" data-name=" 31" class="cls-4" d="M783.2,451.22a8.51,8.51,0,0,0,3.8-3.14,6.15,6.15,0,0,0-2.73-8.26l-.37-.17c-1.92-.58-11.55-3.18-11.55-3.18L767,455.28l3.5.94,1.89-7,6.07,1.64,1.47.4s.79,3.64.33,5.56a18,18,0,0,1-.6,2.06L783,460a15.08,15.08,0,0,0,1-5.56A11.11,11.11,0,0,0,783.2,451.22Zm-1.08-3.59c-.93.35-3-.33-3-.33l-5.84-1.6,1.31-4.85c.86.3,5.53,1.49,5.61,1.52.92.29,2,.55,2,.55a2.82,2.82,0,0,1,1.25,1.19,2.06,2.06,0,0,1,.2,1.85A2.86,2.86,0,0,1,782.12,447.63Z"/><path id="_30" data-name=" 30" class="cls-4" d="M854.09,480a8.51,8.51,0,0,0,4-2.8,6.15,6.15,0,0,0-2-8.45l-.37-.21c-1.87-.75-11.24-4.16-11.24-4.16l-6.92,18.29,3.4,1.24,2.48-6.83,5.91,2.15,1.43.52s.48,3.7-.15,5.57a17.94,17.94,0,0,1-.77,2l3.22,1.44a15.16,15.16,0,0,0,1.42-5.45A11.22,11.22,0,0,0,854.09,480Zm-.77-3.67a6.2,6.2,0,0,1-2.92-.57l-5.67-2.09s1.16-3.22,1.71-4.73c.83.38,5.38,2,5.46,2,.9.37,1.93.72,1.93.72A2.87,2.87,0,0,1,855,473a2.08,2.08,0,0,1,0,1.85A2.81,2.81,0,0,1,853.32,476.33Z"/><path id="_29" data-name=" 29" class="cls-4" d="M759.19,444.69a8.57,8.57,0,0,0,3.72-3.23,6.13,6.13,0,0,0-2.89-8.17,3.65,3.65,0,0,0-.41-.18c-1.94-.54-11.62-2.91-11.62-2.91l-4.9,18.94,3.52.86,1.72-7.06,6.11,1.5,1.48.36m2.1-3.67c-.92.37-3-.26-3-.26l-5.87-1.46,1.19-4.88c.87.28,5.56,1.36,5.65,1.39.93.26,2,.5,2,.5a2.77,2.77,0,0,1,1.28,1.16,2,2,0,0,1,.24,1.84,2.81,2.81,0,0,1-1.51,1.71Z"/><path id="_28" data-name=" 28" class="cls-4" d="M831.79,469.4a14.38,14.38,0,0,0-1.56-.54c-1.52,2.88-4.9,4.94-7.91,2.87-5.48-3.75,1.24-13.59,6.72-9.83a4.44,4.44,0,0,1,2,3.5c.83.36,1.73.52,2.56.9l1,.49a8.8,8.8,0,0,0-4.47-8.66c-4.3-2.24-9.81-.17-12.29,4.63s-1,10.49,3.31,12.73,9.81.16,12.29-4.63c.1-.19.18-.39.27-.58Z"/><polygon id="_27" data-name=" 27" class="cls-8" points="821.26 433.63 816.92 436.78 818.58 441.89 814.24 438.74 809.9 441.89 811.56 436.78 807.22 433.63 812.58 433.63 814.24 428.52 815.9 433.63 821.26 433.63"/><polygon id="_26" data-name=" 26" class="cls-8" points="574.35 460.4 579.51 464.16 577.54 470.24 582.7 466.48 587.87 470.24 585.89 464.16 591.06 460.4 584.67 460.4 582.7 454.32 580.73 460.4 574.35 460.4"/><polygon id="_25" data-name=" 25" class="cls-8" points="800.34 487.85 803.91 490.45 802.55 494.66 806.12 492.06 809.69 494.66 808.33 490.45 811.9 487.85 807.48 487.85 806.12 483.64 804.77 487.85 800.34 487.85"/><polygon id="_24" data-name=" 24" class="cls-8" points="617.22 536.02 619.4 537.56 618.56 540.16 620.73 538.58 622.91 540.16 622.08 537.61 624.25 536.02 621.56 536.02 620.73 533.46 619.9 536.02 617.22 536.02"/><polyline id="_23" data-name=" 23" class="cls-8" points="600.79 540.65 598.85 546.73 592.47 546.73 597.64 550.49 595.66 556.57 600.83 552.81 605.99 556.57 604.02 550.49 609.18 546.73 602.8 546.73 600.83 540.65"/><polygon id="_22" data-name=" 22" class="cls-8" points="568.77 565.63 573.07 568.76 571.43 573.83 575.73 570.69 580.03 573.83 578.39 568.76 582.69 565.63 577.37 565.63 575.73 560.56 574.09 565.63 568.77 565.63"/><polygon id="_21" data-name=" 21" class="cls-8" points="665.23 505.98 669.45 509.05 667.84 514.01 672.05 510.94 676.27 514.01 674.66 509.05 678.88 505.98 673.66 505.98 672.05 501.01 670.44 505.98 665.23 505.98"/><polygon id="_20" data-name=" 20" class="cls-8" points="637.67 567.31 641.56 570.14 640.08 574.72 643.96 571.89 647.85 574.72 646.37 570.14 650.25 567.31 645.45 567.31 643.96 562.73 642.48 567.31 637.67 567.31"/><polygon id="_19" data-name=" 19" class="cls-8" points="631.89 588.8 635.46 591.4 634.1 595.61 637.67 593 641.24 595.61 639.88 591.4 643.45 588.8 639.04 588.8 637.67 584.59 636.33 588.8 631.89 588.8"/><polygon id="_18" data-name=" 18" class="cls-8" points="659.57 605.15 664.73 608.91 662.76 614.99 667.92 611.23 673.08 614.99 671.11 608.91 676.27 605.15 669.89 605.15 667.92 599.07 665.95 605.15 659.57 605.15"/><polygon id="_17" data-name=" 17" class="cls-8" points="742.98 531.43 747.32 534.59 745.66 539.7 750 536.54 754.34 539.7 752.68 534.59 757.02 531.43 751.63 531.43 750 526.33 748.34 531.43 742.98 531.43"/><polygon id="_16" data-name=" 16" class="cls-8" points="723.5 549.93 727.08 552.53 725.71 556.74 729.28 554.13 732.86 556.74 731.49 552.53 735.07 549.93 730.65 549.93 729.29 545.72 727.92 549.93 723.5 549.93"/><polygon id="_15" data-name=" 15" class="cls-8" points="736.03 564.09 738.2 565.67 737.37 568.23 739.54 566.65 741.72 568.23 740.89 565.67 743.06 564.09 740.37 564.09 739.54 561.53 738.71 564.09 736.03 564.09"/><polygon id="_14" data-name=" 14" class="cls-8" points="766.67 549.38 771.01 552.54 769.35 557.65 773.68 554.49 778.02 557.65 776.37 552.54 780.7 549.38 775.34 549.38 773.68 544.27 772.05 549.38 766.67 549.38"/><polygon id="_13" data-name=" 13" class="cls-8" points="741.65 590.4 746.81 594.16 744.84 600.24 750 596.48 755.16 600.24 753.19 594.16 758.35 590.4 751.97 590.4 750 584.32 748.06 590.4 741.65 590.4"/><polygon id="_12" data-name=" 12" class="cls-8" points="747.19 659.77 748.85 660.97 748.22 662.92 749.87 661.72 751.53 662.92 750.89 660.97 752.55 659.77 750.5 659.77 749.87 657.82 749.25 659.77 747.19 659.77"/><polygon id="_11" data-name=" 11" class="cls-8" points="789.34 613.38 792.91 615.99 791.55 620.19 795.12 617.59 798.69 620.19 797.33 615.99 800.9 613.38 796.48 613.38 795.12 609.18 793.77 613.38 789.34 613.38"/><polygon id="_10" data-name=" 10" class="cls-8" points="804.24 635.93 808.58 639.08 806.92 644.19 811.26 641.03 815.6 644.19 813.94 639.08 818.27 635.93 812.91 635.93 811.26 630.82 809.6 635.93 804.24 635.93"/><polygon id="_9" data-name=" 9" class="cls-8" points="831.2 620.65 834.78 618.05 830.36 618.05 829 613.84 827.65 618.05 823.21 618.05 826.79 620.65 825.42 624.86 829 622.26 832.57 624.86 831.2 620.65"/><polygon id="_8" data-name=" 8" class="cls-8" points="846 611.23 849.58 613.83 848.21 618.04 851.79 615.44 855.36 618.04 853.99 613.83 857.57 611.23 853.15 611.23 851.79 607.03 850.42 611.23 846 611.23"/><polygon id="_7" data-name=" 7" class="cls-8" points="845.29 630.65 849.63 633.81 847.97 638.92 852.31 635.76 856.65 638.92 854.99 633.81 859.33 630.65 853.97 630.65 852.31 625.54 850.65 630.65 845.29 630.65"/><polygon id="_6" data-name=" 6" class="cls-8" points="847.02 652.1 850.59 654.7 849.23 658.91 852.8 656.31 856.37 658.91 855.01 654.7 858.58 652.1 854.14 652.1 852.8 647.89 851.45 652.1 847.02 652.1"/><polygon id="_5" data-name=" 5" class="cls-8" points="867.42 614.91 870.99 617.51 869.63 621.72 873.2 619.12 876.77 621.72 875.41 617.51 878.98 614.91 874.56 614.91 873.2 610.7 871.83 614.91 867.42 614.91"/><polyline id="_4" data-name=" 4" class="cls-8" points="882.58 604.27 886.92 607.42 885.26 612.53 889.6 609.38 893.94 612.53 892.28 607.42 896.62 604.27 891.26 604.27 889.6 599.16 887.97 604.27 882.71 604.24"/><polygon id="_3" data-name=" 3" class="cls-8" points="894.9 588.25 899.24 591.4 897.58 596.51 901.92 593.36 906.25 596.51 904.6 591.4 908.93 588.25 903.57 588.25 901.91 583.14 900.26 588.25 894.9 588.25"/><polygon id="_2" data-name=" 2" class="cls-8" points="885.21 569.21 890.37 572.97 888.4 579.05 893.56 575.29 898.72 579.05 896.75 572.97 901.91 569.21 895.53 569.21 893.56 563.13 891.59 569.21 885.21 569.21"/><polygon id="_1" data-name=" 1" class="cls-8" points="916.48 572.31 920.05 574.91 918.69 579.12 922.26 576.52 925.83 579.12 924.47 574.91 928.04 572.31 923.62 572.31 922.26 568.1 920.91 572.31 916.48 572.31"/></g></svg>